<svg version="1.2" baseProfile="tiny-ps" xmlns="http://www.w3.org/2000/svg" viewBox="0 0 1404 1050" width="1404" height="1050">
	<title>Achol Logo (2)-ai</title>
	<style>
		tspan { white-space:pre }
		.shp0 { fill: #862995 } 
		.txt1 { font-size: 21px;line-height: 5px;fill: #862995;font-weight: 400;font-family: "Abel-Regular", "Abel" } 
		.shp2 { fill: none;stroke: #000000;stroke-width: 2.016 } 
	</style>
	<g >
		<g >
			<g >
				<g >
					<path class="shp0" d="M436.39 1011.72L436.39 719.73C430.86 636.19 386.34 576.3 302.8 540.04C187.74 469.91 171.98 349.33 255.51 178.31C287.04 119.99 346.15 82.17 432.85 64.83C536.07 43.55 628.67 77.44 710.64 166.49C689.36 79.8 593.61 34.88 423.38 31.73C253.95 56.94 164.1 142.45 153.86 288.25C167.25 342.63 169.22 378.09 159.76 394.64C138.49 433.26 122.33 455.72 111.3 462.03C84.5 489.61 91.59 510.1 132.58 523.49C162.53 517.97 168.83 529.01 151.5 556.6C144.4 573.94 149.92 580.64 168.04 576.69C177.5 585.36 175.53 591.67 162.13 595.61C155.82 604.28 162.52 611.77 182.23 618.06C193.26 634.62 190.89 645.66 175.13 651.17C163.31 662.29 170.01 680.81 195.22 706.71C209.42 718.55 246.86 720.52 307.54 712.63C328.81 706.33 350.88 767.01 373.73 894.69C397.37 979.01 418.26 1018.02 436.39 1011.72Z" />
					<g >
						<path class="shp0" d="M335.1 145.86C335.1 153.81 334.86 161.8 335.17 169.78C335.48 178.4 336.24 187.01 336.92 195.62C338.03 209.91 340.37 223.99 343.97 237.89C348.76 256.36 355.73 273.83 368.18 288.5C375.13 296.72 383.41 303.46 393.31 308.3C403.15 313.1 413.13 317.02 424.14 315.8C433.19 314.8 442.13 312.7 451.08 310.86C452.83 310.51 454.39 309.17 456.51 308.03C467.25 328.89 466.49 350.29 460.73 372.2C452.65 365.56 444.97 359.11 437.14 352.86C427.15 344.9 415.49 341.71 402.91 341.27C389.79 340.83 376.91 342.25 364.38 346.28C364.07 346.38 363.69 346.25 362.43 346.16C385 335.44 407.06 333.92 429.59 343.57C429.81 343.27 430.03 342.98 430.26 342.68C427.96 340.16 426.05 337.08 423.31 335.21C413.08 328.31 401.45 327.42 389.57 328.58C372.17 330.3 359.65 340.69 347.93 352.27C359.04 358.57 369.94 365.09 381.14 371.07C397.74 379.94 418.68 372.1 426.58 358.15C426.75 357.84 427.02 357.58 427.42 357.07C436.27 362.93 438.47 371.91 439.61 381.43C456.56 383.23 473.29 382.76 490.28 378.55C488.2 367.41 488.65 356.54 492.64 345.96C496.54 335.55 502.5 326.49 510.04 318.59C513.7 321.96 517.11 325.5 520.92 328.54C531.21 336.74 543.08 337.99 555.45 335.26C567.86 332.52 579.42 327.36 588.31 318.17C594.83 311.44 600.57 303.77 605.62 295.86C611.03 287.4 615.24 278.17 620.19 268.84C605.14 265.36 591.12 261.93 576.53 260.94C557.56 259.64 539.39 262.21 522.39 270.68C512.94 275.38 505.67 282.64 503.46 293.59C502.86 296.59 503.06 299.77 502.85 303.4C529.9 280.43 560.76 270.07 595.29 270.44C595.42 270.85 595.56 271.27 595.69 271.69C595.23 271.78 594.77 271.95 594.31 271.93C575.22 271.51 557.61 277.17 540.89 285.69C532.87 289.76 524.86 294.29 517.9 299.93C509.67 306.59 502.41 314.51 495.04 322.18C489.08 328.36 483.58 334.97 477.67 341.65C474.76 332.84 472.07 324.2 469.05 315.67C460.42 291.32 449.05 268.4 433.06 247.98C423.27 235.5 411.92 224.5 399.51 214.64C387.15 204.8 374.55 195.23 362.17 185.4C358.95 182.83 356.19 179.68 352.93 176.54C353.88 176.28 354.16 176.13 354.21 176.19C363.45 186.57 375.39 193.3 386.99 200.46C404.9 211.52 421.92 223.76 436.36 239.15C450.89 254.6 462.59 271.97 469.39 292.31C469.84 293.65 470.46 294.93 471.32 296.98C473.23 294.46 474.84 292.39 476.39 290.28C483.98 280.01 488.56 268.54 488.39 255.73C488.22 242.93 483.44 231.34 477.03 220.4C465.46 200.7 448.04 187.97 426.99 180.39C412.03 175 396.56 171.04 381.29 166.52C369.85 163.13 358.19 160.34 347.73 154.35C343.39 151.88 339.4 148.78 335.1 145.86Z" />
						<path fill-rule="evenodd" class="shp0" d="M657.96 486.35C650.9 485.62 643.9 485.52 637.14 487.82C612.12 496.3 587.05 504.65 562.2 513.61C548.78 518.46 535.83 524.6 522.57 529.89C511.71 534.23 500.72 534.88 489.58 530.36C477.94 525.64 466.27 520.94 454.38 516.88C442.95 513.01 431.13 510.26 419.68 506.43C410.58 503.39 401.97 498.8 392.79 496.05C380.09 492.26 368.96 486.86 360.08 476.43C352.98 468.08 344.56 460.75 336.16 453.64C323.7 443.11 310.74 433.16 297.96 423C293.1 419.14 288.07 415.51 283.27 411.56C281.16 409.84 278.57 407.68 283.01 405.43C283.3 405.27 283.43 404.61 283.46 404.18C284.1 396.81 291.83 392.04 300.45 393.33C302.73 393.67 305.53 393.5 307.52 392.46C314.38 388.87 321.16 388.5 328.09 391.82C330.73 393.09 333.22 394.69 335.77 396.11C340.08 391.9 345.19 391.2 350.78 392.18C356.2 393.14 360.93 395.36 364.5 399.73C366.72 396.52 369.37 394.31 373.23 393.84C376.41 393.47 380.12 393.87 382.64 392.35C390.64 387.51 399.44 387.13 408.2 386.93C422.87 386.58 437.56 386.43 452.22 386.9C469.62 387.48 486.46 385.08 503 379.81C518.66 374.82 534.71 371.01 551.15 370.4C565.75 369.88 580.4 370.69 595.02 371.1C599.66 371.24 604.29 371.89 608.89 372.51C618.55 373.83 628.23 374.97 637.8 376.76C647.46 378.55 657.4 379.96 666.49 383.44C682.46 389.55 697.88 397.09 713.5 404.09C714.86 404.68 716.04 405.65 717.3 406.46C709.43 404.12 702.03 401 694.59 397.99C684.02 393.73 673.58 389.01 662.78 385.46C647.42 380.43 631.25 379.54 615.27 378.2C602.51 377.13 589.68 376.44 576.88 376.31C566.24 376.2 555.43 376.13 544.98 377.85C531.82 380.01 518.98 384.12 505.96 387.21C495.8 389.6 485.66 392.92 475.35 393.65C461.76 394.63 448.01 393.69 434.33 393.21C420.92 392.75 407.53 391.77 394.14 391.14C392.18 391.05 390.2 391.61 388.23 391.88C391.16 392.63 394.05 392.75 396.82 393.38C401.77 394.55 402.81 397.41 401.32 402.3C400.32 405.64 400.15 409.28 399.9 412.8C399.77 414.67 400.41 416.57 400.45 418.47C400.53 423.04 399.16 424.46 394.44 424.29C389.86 424.12 385.28 423.59 380.7 423.23C384.05 424.91 387.53 426.69 391.17 427.11C405.87 428.8 420.6 430.44 435.37 431.33C444.44 431.88 453.59 431.1 462.72 430.81C467.02 430.67 471.37 430.54 475.61 429.94C485.27 428.55 494.89 429.01 503.61 433.18C511.8 437.11 519.26 442.55 527.02 447.36C527.33 447.54 527.41 448.11 528.11 449.61C519.7 446.04 512.24 442.87 504.76 439.68C504.46 442.87 504.52 445.55 503.93 448.08C502.28 455.23 500.44 462.33 498.51 469.41C498.11 470.84 496.96 472.09 496.16 473.42C495.12 472.09 493.96 470.83 493.11 469.38C492.72 468.75 492.87 467.74 492.94 466.91C493.24 463.41 493.6 459.89 493.96 456.17C493.25 456.23 492.41 456.17 491.66 456.39C485.74 458.06 479.79 459.61 473.95 461.51C462.73 465.15 451.86 465.19 440.32 461.68C425.67 457.21 410.48 454.52 395.61 451.08C392.27 458.59 392.27 458.59 389.44 458.72C390.74 455.7 391.97 452.86 393.14 450.12C391.22 448.85 389.35 447.79 387.67 446.5C379.21 440.05 371.2 432.91 362.27 427.26C355.03 422.66 349.4 416.8 343.7 410.69C338.5 405.12 332.8 399.95 326.89 395.13C322.44 391.49 314.2 390.12 309.21 393.9C315.6 401.43 325.52 407.45 320.1 420.4C327.58 426.98 335.2 433.9 343.06 440.52C352.33 448.33 361.45 456.21 368.46 466.26C371.89 471.19 376.01 475.43 381.94 477.59C391.76 481.17 401.51 484.94 411.28 488.67C437.1 498.52 462.91 508.38 488.71 518.3C490.62 519.03 492.38 520.19 494.21 521.17C493.6 521.67 493.25 521.68 492.94 521.57C466.84 512.34 440.74 503.14 414.67 493.84C405.73 490.66 397.06 486.54 387.94 484.1C376.83 481.13 367.86 475.85 361.26 466.31C352.61 453.78 339.64 445.62 328.9 435.18C319.43 425.99 310.45 416.49 303.11 405.53C301.02 402.41 299.04 399.04 301.64 395.17C293.54 394.7 287.86 397.7 284.85 405.27C291.12 406.03 301.56 412.96 304.31 418.5C305.04 419.98 304.43 422.11 304.43 424.69C307.22 426.55 310.93 429.14 314.75 431.58C331.95 442.65 347.49 455.81 361.58 470.53C369.06 478.37 376.93 484.96 387.38 488.28C395.62 490.89 403.82 493.66 411.91 496.68C420.34 499.83 428.39 504.23 437.02 506.52C455.35 511.4 473.3 516.87 489.46 527.2C492.61 529.22 496.31 531.67 499.74 531.64C505.69 531.62 511.95 530.65 517.5 528.53C525.88 525.33 533.59 520.4 541.87 516.88C566.03 506.63 590.22 496.38 614.67 486.83C623.2 483.5 632.42 481.36 641.52 480.23C650.9 479.06 662.48 482 671.46 484.57C671.71 484.64 671.68 486.08 671.75 486.28C667.91 486.28 661.66 486.71 657.96 486.35ZM474.96 437.67C462.32 437.98 449.67 438.03 437.02 438.04C433.46 438.05 429.9 437.6 426.22 437.36C429.35 441.51 432.39 445.51 435.41 449.53C435.91 450.19 436.55 450.85 436.77 451.61C439.41 460.94 447.69 460.53 454.74 461.8C461.77 463.05 468.22 459.63 474.93 458.28C481.09 457.04 487.26 455.88 493.44 454.67C494.1 454.52 495.08 454.44 495.34 454C498.06 449.33 501.38 444.89 501.75 438.89C492.64 436.48 483.79 437.46 474.96 437.67ZM338.42 396.91C343.01 401.95 348.02 406.91 352.38 412.39C357.22 418.47 364.57 420.94 370.24 425.81C378.13 432.55 386.12 439.28 394.61 445.23C398.41 447.9 403.5 448.81 408.08 450.26C410.98 451.18 414.02 451.62 417.44 451.8C415.13 449.75 412.85 447.68 410.54 445.63C407.12 442.63 403.43 439.89 400.33 436.59C397.32 433.38 393.55 432.41 389.59 431.57C383.3 430.27 377.68 427.66 372.96 423.2C372.2 422.49 371.24 421.97 370.32 421.44C363.11 417.23 360.7 411.34 362.97 403.34C363.19 402.59 363.48 401.83 363.75 401.01C355.5 395.76 347.31 391.76 338.42 396.91ZM373.91 395.52C368.72 396.62 366.04 400.27 365.18 405.2C364.33 410.02 366.05 413.93 369.92 417.18C374.75 421.23 380.53 421.59 386.29 422.12C388.98 422.37 391.72 422.26 394.43 422.12C396.49 422.02 397.77 420.96 397.59 418.66C397.33 415.21 396.85 411.76 396.96 408.33C397.03 406.02 397.65 403.61 398.57 401.48C400.06 398 399.79 396.5 396.03 395.5C392.4 394.53 388.59 394.21 384.66 393.58C381.11 394.21 377.49 394.77 373.91 395.52ZM414.13 444.14C415.01 444.96 416.27 445.68 416.62 446.7C419.4 454.77 427 454.17 433.19 456.08C434.18 456.4 435.23 456.55 437.31 457C431.21 449.82 426.01 443.13 420.12 437.1C418.49 435.42 414.83 435.68 412.09 435.19C409.3 434.7 406.48 434.39 403.29 433.95C407.03 437.46 410.59 440.79 414.13 444.14ZM308.13 407.31C311.37 411.13 314.85 414.74 318.35 418.57C320.75 414.9 319.38 411.57 317.78 408.88C314.86 403.96 311.33 399.4 307.88 394.84C307.49 394.31 305.74 394.31 304.91 394.7C303.42 395.37 302.15 396.53 300.73 397.52C303.68 401.44 305.75 404.51 308.13 407.31ZM303.11 423.35C304.23 416.97 288.63 405.72 281.75 407.84C288.57 413.84 295.29 419.09 303.11 423.35Z" />
					</g>
					<g >
						<path fill-rule="evenodd" class="shp0" d="M991.91 549.33L984.49 538.2C981.44 542.21 977.62 545.43 973.03 547.86C968.45 550.29 963.43 551.52 957.97 551.52L954.59 551.52C950.07 551.52 945.81 550.67 941.81 548.95C937.81 547.25 934.31 544.9 931.33 541.91C928.35 538.93 926 535.44 924.3 531.44C922.58 527.44 921.73 523.18 921.73 518.67L921.73 517.58C921.73 513.06 922.58 508.8 924.3 504.8C926 500.8 928.35 497.31 931.33 494.33C934.31 491.33 937.81 489 941.81 487.28C945.81 485.58 950.07 484.72 954.59 484.72L982.97 484.72L982.97 467.47C982.97 464.78 982.45 462.24 981.44 459.89C980.41 457.52 979.03 455.46 977.29 453.72C975.54 451.97 973.49 450.59 971.12 449.57C968.76 448.55 966.22 448.05 963.54 448.05L955.68 448.05C952.98 448.05 950.46 448.55 948.09 449.57C945.72 450.59 943.67 451.97 941.92 453.72C940.17 455.46 938.79 457.52 937.77 459.89C936.76 462.24 936.25 464.78 936.25 467.47L936.25 471.52L922.82 469.33L922.82 468.24C922.82 463.72 923.67 459.48 925.39 455.46C927.09 451.46 929.44 447.97 932.43 444.98C935.41 442.01 938.91 439.66 942.91 437.94C946.9 436.24 951.16 435.38 955.68 435.38L963.54 435.38C968.05 435.38 972.3 436.24 976.3 437.94C980.31 439.66 983.8 442.01 986.79 444.98C989.76 447.97 992.12 451.46 993.83 455.46C995.53 459.48 996.39 463.72 996.39 468.24L996.39 549.33L991.91 549.33ZM982.97 495.2L954.59 495.2C951.89 495.2 949.37 495.7 947 496.74C944.63 497.75 942.58 499.15 940.84 500.93C939.08 502.71 937.7 504.79 936.68 507.15C935.67 509.51 935.16 512.05 935.16 514.73L935.16 519.43C935.16 522.12 935.67 524.65 936.68 527.01C937.7 529.38 939.08 531.44 940.84 533.19C942.58 534.93 944.63 536.31 947 537.34C949.37 538.34 951.89 538.87 954.59 538.87L963.54 538.87C966.22 538.87 968.76 538.34 971.12 537.34C973.49 536.31 975.54 534.93 977.29 533.19C979.03 531.44 980.41 529.38 981.44 527.01C982.45 524.65 982.97 522.12 982.97 519.43L982.97 495.2Z" />
						<path class="shp0" d="M1095.33 531.44C1093.63 535.44 1091.28 538.93 1088.29 541.91C1085.31 544.9 1081.82 547.25 1077.81 548.95C1073.81 550.67 1069.56 551.52 1065.04 551.52L1056.09 551.52C1051.58 551.52 1047.33 550.67 1043.33 548.95C1039.32 547.25 1035.83 544.9 1032.84 541.91C1029.86 538.93 1027.51 535.44 1025.8 531.44C1024.1 527.44 1023.24 523.18 1023.24 518.67L1023.24 468.24C1023.24 463.72 1024.1 459.48 1025.8 455.46C1027.51 451.46 1029.86 447.97 1032.84 444.98C1035.83 442.01 1039.32 439.66 1043.33 437.94C1047.33 436.24 1051.58 435.38 1056.09 435.38L1065.04 435.38C1069.56 435.38 1073.81 436.24 1077.81 437.94C1081.82 439.66 1085.31 442.01 1088.29 444.98C1091.28 447.97 1093.63 451.46 1095.33 455.46C1097.04 459.48 1097.9 463.72 1097.9 468.24L1097.9 472.71L1084.48 474.9L1084.48 467.47C1084.48 464.78 1083.96 462.24 1082.94 459.89C1081.92 457.52 1080.55 455.46 1078.8 453.72C1077.05 451.97 1075 450.59 1072.63 449.57C1070.27 448.55 1067.73 448.05 1065.04 448.05L1056.09 448.05C1053.4 448.05 1050.87 448.55 1048.51 449.57C1046.14 450.59 1044.09 451.97 1042.34 453.72C1040.59 455.46 1039.22 457.52 1038.19 459.89C1037.17 462.24 1036.67 464.78 1036.67 467.47L1036.67 519.43C1036.67 522.12 1037.17 524.65 1038.19 527.01C1039.22 529.38 1040.59 531.44 1042.34 533.19C1044.09 534.93 1046.14 536.31 1048.51 537.34C1050.87 538.34 1053.4 538.87 1056.09 538.87L1065.04 538.87C1067.73 538.87 1070.27 538.34 1072.63 537.34C1075 536.31 1077.05 534.93 1078.8 533.19C1080.55 531.44 1081.92 529.38 1082.94 527.01C1083.96 524.65 1084.48 522.12 1084.48 519.43L1084.48 512.01L1097.9 514.18L1097.9 518.67C1097.9 523.18 1097.04 527.44 1095.33 531.44Z" />
						<path class="shp0" d="M1185.98 549.33L1185.98 467.47C1185.98 464.78 1185.48 462.24 1184.46 459.89C1183.44 457.52 1182.05 455.46 1180.31 453.72C1178.56 451.97 1176.51 450.59 1174.14 449.57C1171.78 448.55 1169.25 448.05 1166.56 448.05L1157.6 448.05C1154.91 448.05 1152.38 448.55 1150.02 449.57C1147.66 450.59 1145.6 451.97 1143.85 453.72C1142.1 455.46 1140.72 457.52 1139.7 459.89C1138.68 462.24 1138.17 464.78 1138.17 467.47L1138.17 549.33L1124.76 549.33L1124.76 392.8L1138.17 392.8L1138.17 446.96C1141.24 443.31 1144.91 440.48 1149.21 438.44C1153.49 436.41 1158.16 435.38 1163.18 435.38L1166.56 435.38C1171.07 435.38 1175.32 436.24 1179.33 437.94C1183.33 439.66 1186.83 442.01 1189.8 444.98C1192.79 447.97 1195.14 451.46 1196.84 455.46C1198.56 459.48 1199.41 463.72 1199.41 468.24L1199.41 549.33L1185.98 549.33Z" />
						<path fill-rule="evenodd" class="shp0" d="M1298.36 531.44C1296.65 535.44 1294.29 538.93 1291.31 541.91C1288.34 544.9 1284.83 547.25 1280.84 548.95C1276.83 550.67 1272.58 551.52 1268.06 551.52L1259.12 551.52C1254.6 551.52 1250.35 550.67 1246.34 548.95C1242.34 547.25 1238.85 544.9 1235.87 541.91C1232.88 538.93 1230.54 535.44 1228.82 531.44C1227.11 527.44 1226.26 523.18 1226.26 518.67L1226.26 468.24C1226.26 463.72 1227.11 459.48 1228.82 455.46C1230.54 451.46 1232.88 447.97 1235.87 444.98C1238.85 442.01 1242.34 439.66 1246.34 437.94C1250.35 436.24 1254.6 435.38 1259.12 435.38L1268.06 435.38C1272.58 435.38 1276.83 436.24 1280.84 437.94C1284.83 439.66 1288.34 442.01 1291.31 444.98C1294.29 447.97 1296.65 451.46 1298.36 455.46C1300.07 459.48 1300.92 463.72 1300.92 468.24L1300.92 518.67C1300.92 523.18 1300.07 527.44 1298.36 531.44ZM1287.49 467.47C1287.49 464.78 1286.99 462.24 1285.97 459.89C1284.95 457.52 1283.56 455.46 1281.82 453.72C1280.07 451.97 1278.02 450.59 1275.65 449.57C1273.29 448.55 1270.75 448.05 1268.06 448.05L1259.12 448.05C1256.43 448.05 1253.89 448.55 1251.53 449.57C1249.16 450.59 1247.11 451.97 1245.37 453.72C1243.61 455.46 1242.23 457.52 1241.21 459.89C1240.2 462.24 1239.68 464.78 1239.68 467.47L1239.68 519.43C1239.68 522.12 1240.2 524.65 1241.21 527.01C1242.23 529.38 1243.61 531.44 1245.37 533.19C1247.11 534.93 1249.16 536.31 1251.53 537.34C1253.89 538.34 1256.43 538.87 1259.12 538.87L1268.06 538.87C1270.75 538.87 1273.29 538.34 1275.65 537.34C1278.02 536.31 1280.07 534.93 1281.82 533.19C1283.56 531.44 1284.95 529.38 1285.97 527.01C1286.99 524.65 1287.49 522.12 1287.49 519.43L1287.49 467.47Z" />
						<path class="shp0" d="M1332.25 549.33L1332.25 392.8L1345.67 392.8L1345.67 549.33L1332.25 549.33Z" />
					</g>
					<g >
						<path class="shp0" d="M883.73 446.11C883.74 446.13 883.63 445.93 883.47 445.76C883.27 445.64 883.25 445.48 882.79 445.18C882.38 444.91 881.96 444.5 881.23 444.2C880.56 443.85 879.79 443.45 878.78 443.2C877.82 442.88 876.75 442.55 875.47 442.42C874.22 442.25 872.9 441.97 871.38 442.01C869.89 442.03 868.34 441.83 866.64 442.01C864.96 442.15 863.19 442.3 861.35 442.45C859.5 442.68 857.58 443.09 855.59 443.42C854.6 443.59 853.59 443.77 852.57 443.94C851.55 444.2 850.52 444.46 849.47 444.72C847.39 445.26 845.24 445.82 843.05 446.39C840.87 447.01 838.67 447.81 836.43 448.54C834.19 449.3 831.9 450 829.62 450.84C827.34 451.73 825.04 452.63 822.72 453.54C820.41 454.45 818.08 455.37 815.74 456.29C813.43 457.32 811.11 458.35 808.79 459.38C804.18 461.48 799.53 463.46 795.11 465.85C790.67 468.16 786.27 470.34 781.94 472.28C777.63 474.3 773.42 476.18 769.35 477.8C765.32 479.48 761.38 480.82 757.8 482.21C754.24 483.63 750.9 484.79 747.93 485.82C744.95 486.82 742.33 487.65 740.13 488.28C737.22 489.13 734.89 489.74 733.15 490.1L731.51 486.98C732.82 485.79 734.68 484.26 737.1 482.4C738.91 480.99 741.14 479.36 743.73 477.52C746.34 475.72 749.29 473.68 752.58 471.61C755.87 469.52 759.54 467.45 763.46 465.33C767.37 463.2 771.56 461.07 775.97 459.04C780.47 457.18 785.2 455.43 790.04 453.75C794.83 451.99 799.81 450.41 804.77 448.83C807.24 448.02 809.71 447.2 812.17 446.4C814.67 445.69 817.17 444.99 819.64 444.29C822.11 443.6 824.56 442.92 826.99 442.25C829.43 441.63 831.89 441.15 834.28 440.61C836.68 440.11 839.01 439.53 841.34 439.12C843.69 438.76 845.98 438.4 848.21 438.05C849.32 437.87 850.42 437.7 851.5 437.53C852.6 437.43 853.69 437.34 854.75 437.25C856.89 437.09 858.92 436.85 860.91 436.78C862.91 436.79 864.83 436.8 866.65 436.81C868.46 436.79 870.22 437.14 871.85 437.28C873.47 437.38 875 437.82 876.41 438.16C877.82 438.42 879.09 438.91 880.23 439.39C881.38 439.78 882.36 440.37 883.2 440.9C884.06 441.35 884.71 442 885.25 442.45C885.78 442.86 886.22 443.54 886.47 443.84C886.7 444.16 886.73 444.26 886.75 444.27L883.73 446.11Z" />
					</g>
					<text style="transform: matrix(3,0,0,3,878.59,631.274)" >
						<tspan x="0" y="0" class="txt1" dx="0 7 7 7 7 7 7 7 7 7 7" >Foundation
</tspan>
					</text>
					<path class="shp2" d="" />
					<g >
						<g >
							<path class="shp0" d="M667.4 567.28L674.01 560.88C676.22 558.75 678.46 556.64 680.46 554.41C684.57 549.99 688.74 545.66 692.55 540.92C694.48 538.58 696.5 536.32 698.35 533.93L703.84 526.69L706.58 523.07L709.13 519.32L714.23 511.81C717.43 506.68 720.62 501.53 723.59 496.27C726.39 490.91 729.48 485.71 731.93 480.18L735.79 471.99C736.99 469.22 738.1 466.41 739.25 463.62C741.67 458.08 743.54 452.34 745.55 446.65C746.61 443.83 747.41 440.92 748.25 438.02L750.78 429.34C752.16 423.47 753.67 417.63 754.82 411.72C755.79 405.78 757.14 399.9 757.73 393.9L758.84 384.94C759.2 381.95 759.3 378.94 759.54 375.94C759.73 372.94 760.02 369.94 760.12 366.93L760.26 357.91L760.33 353.4L760.35 352.28L760.31 351.32L760.21 349.02C760.05 345.98 759.98 342.86 759.75 339.87C759.11 334.04 758.6 328.23 757.49 322.3C756.66 316.38 755.19 310.54 754 304.67L751.19 290.73L763.38 297.82C769.53 301.39 775.18 305.03 780.88 308.9C786.52 312.76 792.12 316.71 797.55 320.86C803.03 324.97 808.37 329.25 813.62 333.65C818.87 338.06 824.02 342.59 829.02 347.29C831.57 349.59 833.99 352.04 836.44 354.45C838.92 356.83 841.3 359.31 843.66 361.83C846.05 364.31 848.41 366.82 850.66 369.45C852.92 372.05 855.28 374.58 857.41 377.31C859.57 380.01 861.82 382.64 863.9 385.42L870.09 393.8L875.89 402.48C877.86 405.36 879.51 408.46 881.33 411.44C883.18 414.41 884.76 417.55 886.36 420.68C887.99 423.79 889.61 426.91 890.94 430.18C892.29 433.44 893.89 436.59 895.03 439.95L898.58 449.97L901.38 460.27C902.37 463.7 902.79 467.27 903.52 470.77C903.82 472.53 904.23 474.27 904.44 476.05L904.97 481.4C905.29 484.97 905.81 488.54 905.7 492.14C905.71 495.73 905.82 499.33 905.72 502.92L904.84 513.68L904.59 516.37L904.13 519.02L903.18 524.33L902.22 529.64C901.9 531.41 901.32 533.11 900.87 534.85L897.97 545.21L894.18 555.25C893.53 556.91 892.95 558.61 892.24 560.24L889.92 565.05L885.28 574.67L875.89 558.75L935.21 557.73L994.53 557.11C1004.41 556.97 1014.3 557.04 1024.19 557.04C1034.07 557.02 1043.96 557.06 1053.84 557.17L1083.5 557.47L1113.16 557.95C1132.93 558.21 1152.71 558.65 1172.48 559.16C1182.37 559.42 1192.25 559.58 1202.14 559.93L1231.8 560.88L1261.46 561.97L1291.11 563.22C1310.89 564.12 1330.66 565.14 1350.43 566.45L1350.43 572.5C1330.66 573.81 1310.89 574.83 1291.11 575.72L1261.46 576.98L1231.8 578.07L1202.14 579.01C1192.25 579.36 1182.37 579.52 1172.48 579.78C1152.71 580.29 1132.93 580.73 1113.16 581L1083.5 581.48L1053.84 581.77C1043.96 581.88 1034.07 581.93 1024.19 581.91C1014.3 581.9 1004.41 581.97 994.53 581.83L935.21 581.21L875.89 580.2L858.42 579.9L866.51 564.28L870.88 555.84L873.08 551.63C873.76 550.2 874.29 548.72 874.91 547.27L878.53 538.53L881.31 529.54C881.75 528.03 882.32 526.55 882.64 525.02L883.6 520.43L884.56 515.83L885.05 513.53L885.32 511.2L886.38 501.87C886.54 498.75 886.51 495.62 886.59 492.48C886.79 489.35 886.38 486.22 886.19 483.09L885.86 478.39C885.73 476.82 885.39 475.27 885.17 473.72C884.59 470.62 884.34 467.46 883.52 464.4L881.27 455.17L878.31 446.09C877.39 443.04 875.98 440.14 874.84 437.15C873.72 434.16 872.31 431.27 870.89 428.38C869.51 425.48 868.14 422.57 866.49 419.78C864.88 416.98 863.45 414.08 861.68 411.36L856.49 403.13L850.89 395.13C849.01 392.47 846.94 389.94 844.97 387.33C843.03 384.7 840.85 382.25 838.78 379.72C836.72 377.18 834.54 374.73 832.32 372.3C830.15 369.84 827.94 367.41 825.63 365.07C823.35 362.7 821.1 360.3 818.71 358.03C814.04 353.38 809.21 348.89 804.27 344.51C799.32 340.13 794.28 335.86 789.1 331.75C783.96 327.59 778.66 323.63 773.31 319.75C767.98 315.91 762.41 312.12 757.01 308.78L766.39 301.93C767.47 308.11 768.82 314.21 769.53 320.47C770.51 326.63 770.99 333.05 771.5 339.42C771.66 342.55 771.66 345.57 771.75 348.64L771.81 350.94L771.82 352.28L771.78 353.45L771.6 358.14L771.25 367.5C771.07 370.61 770.71 373.72 770.45 376.83C770.13 379.93 769.95 383.06 769.51 386.14L768.15 395.41C767.4 401.61 765.88 407.68 764.72 413.8C763.4 419.89 761.71 425.9 760.15 431.93L757.34 440.85C756.4 443.82 755.5 446.8 754.34 449.7C752.15 455.53 750.08 461.4 747.47 467.06C746.21 469.91 745.01 472.78 743.71 475.6L739.54 483.95C736.89 489.58 733.6 494.88 730.6 500.31C727.42 505.65 724.03 510.87 720.62 516.06L715.22 523.65L712.52 527.44L709.63 531.09L703.85 538.38C701.89 540.79 699.77 543.06 697.75 545.41C693.76 550.14 689.33 554.56 684.98 559.01C682.83 561.3 680.56 563.34 678.31 565.43L671.56 571.67L667.4 567.28Z" />
						</g>
					</g>
				</g>
				<path class="shp0" d="M664.34 486.46C681.11 507.06 682.39 532.55 668.18 562.91C664.99 568.91 666.13 571.82 671.62 571.64C686.7 542.26 686.64 513.24 671.46 484.57L664.34 486.46Z" />
			</g>
		</g>
	</g>
</svg>